<svg width="45" height="41" viewBox="0 0 45 41" fill="none" xmlns="http://www.w3.org/2000/svg">
<rect y="0.5" width="45" height="40" rx="12" fill="#FE502D"/>
<path d="M23.9999 29.4999H31.9999M25.9999 13.4999L29.9999 17.4999M32.1739 15.3119C32.7026 14.7833 32.9997 14.0664 32.9998 13.3187C32.9999 12.5711 32.703 11.8541 32.1744 11.3254C31.6459 10.7967 30.9289 10.4996 30.1813 10.4995C29.4337 10.4994 28.7166 10.7963 28.1879 11.3249L14.8419 24.6739C14.6098 24.9054 14.438 25.1904 14.3419 25.5039L13.0209 29.8559C12.9951 29.9424 12.9931 30.0342 13.0153 30.1217C13.0374 30.2092 13.0829 30.2891 13.1467 30.3529C13.2106 30.4167 13.2906 30.462 13.3781 30.484C13.4656 30.506 13.5575 30.5039 13.6439 30.4779L17.9969 29.1579C18.3101 29.0626 18.5951 28.892 18.8269 28.6609L32.1739 15.3119Z" stroke="white" stroke-width="2" stroke-linecap="round" stroke-linejoin="round"/>
</svg>
