<svg width="45" height="41" viewBox="0 0 45 41" fill="none" xmlns="http://www.w3.org/2000/svg">
<rect y="0.5" width="45" height="40" rx="12" fill="#FE502D"/>
<path d="M23 29.5V15.5M23 29.5C23 28.7044 22.6839 27.9413 22.1213 27.3787C21.5587 26.8161 20.7956 26.5 20 26.5H14C13.7348 26.5 13.4804 26.3946 13.2929 26.2071C13.1054 26.0196 13 25.7652 13 25.5V12.5C13 12.2348 13.1054 11.9804 13.2929 11.7929C13.4804 11.6054 13.7348 11.5 14 11.5H19C20.0609 11.5 21.0783 11.9214 21.8284 12.6716C22.5786 13.4217 23 14.4391 23 15.5M23 29.5C23 28.7044 23.3161 27.9413 23.8787 27.3787C24.4413 26.8161 25.2044 26.5 26 26.5H32C32.2652 26.5 32.5196 26.3946 32.7071 26.2071C32.8946 26.0196 33 25.7652 33 25.5V24.2M23 15.5C23 14.4391 23.4214 13.4217 24.1716 12.6716C24.9217 11.9214 25.9391 11.5 27 11.5H32C32.2652 11.5 32.5196 11.6054 32.7071 11.7929C32.8946 11.9804 33 12.2348 33 12.5V14.5M27 20.5L29 22.5L33 18.5" stroke="white" stroke-width="2" stroke-linecap="round" stroke-linejoin="round"/>
</svg>
