<svg width="24" height="24" viewBox="0 0 24 24" fill="none" xmlns="http://www.w3.org/2000/svg">
<path d="M15 16L17.536 8.67198C17.6053 8.47149 17.7354 8.2976 17.9082 8.17452C18.081 8.05145 18.2879 7.9853 18.5 7.9853C18.7121 7.9853 18.919 8.05145 19.0918 8.17452C19.2646 8.2976 19.3947 8.47149 19.464 8.67198L22 16M15.697 14H21.303M2 16L6.039 6.30998C6.07698 6.21888 6.14107 6.14107 6.22319 6.08633C6.30532 6.03159 6.4018 6.00238 6.5005 6.00238C6.5992 6.00238 6.69568 6.03159 6.77781 6.08633C6.85993 6.14107 6.92402 6.21888 6.962 6.30998L11 16M3.304 13H9.696" stroke="#FE502D" stroke-width="2" stroke-linecap="round" stroke-linejoin="round"/>
</svg>
