<svg width="40" height="40" viewBox="0 0 40 40" fill="none" xmlns="http://www.w3.org/2000/svg">
<path d="M36.4255 0V32.8305L7.16037 36.0241L3.57568 36.4153V3.58469C3.57568 2.59477 3.97646 1.6982 4.62522 1.04945C5.27397 0.400703 6.17045 0 7.16037 0H36.4255Z" fill="#DA4A54"/>
<path d="M7.16037 0V36.0241L3.57568 36.4153V3.58469C3.57568 2.59477 3.97646 1.6982 4.62522 1.04945C5.27397 0.400703 6.17045 0 7.16037 0Z" fill="#C32430"/>
<path d="M36.4258 32.8311H7.16021C5.18053 32.8311 3.57568 34.4359 3.57568 36.4156C3.57568 38.3953 5.18053 40.0001 7.16021 40.0001H36.4258V37.988L34.9673 36.4155L36.4258 34.843V32.8311Z" fill="#C32430"/>
<path d="M7.16039 37.9878C6.29328 37.9878 5.58789 37.2824 5.58789 36.4153C5.58789 35.5482 6.29328 34.8428 7.16039 34.8428H36.4259V37.9878H7.16039Z" fill="#DFEAEF"/>
<path d="M16.4837 7.77195L13.8778 5.09742L11.272 7.77195V0H16.4837V7.77195Z" fill="#F4DD45"/>
<path d="M27.8459 10.019H13.9495C12.5562 10.019 11.4268 11.1485 11.4268 12.5418V20.2395C11.4268 21.6328 12.5562 22.7622 13.9495 22.7622H27.8459C29.2392 22.7622 30.3686 21.6328 30.3686 20.2395V12.5418C30.3686 11.1485 29.2392 10.019 27.8459 10.019Z" fill="#DFEAEF"/>
<path d="M27.8461 23.366H13.9496C12.2257 23.366 10.8232 21.9635 10.8232 20.2396V12.5419C10.8232 10.818 12.2257 9.41553 13.9496 9.41553H27.8461C29.57 9.41553 30.9725 10.818 30.9725 12.5419V20.2396C30.9725 21.9635 29.57 23.366 27.8461 23.366ZM13.9496 10.6228C12.8914 10.6228 12.0305 11.4837 12.0305 12.5419V20.2396C12.0305 21.2978 12.8914 22.1587 13.9496 22.1587H27.8461C28.9043 22.1587 29.7652 21.2978 29.7652 20.2396V12.5419C29.7652 11.4837 28.9043 10.6228 27.8461 10.6228H13.9496Z" fill="#C32430"/>
<path d="M26.5678 15.3952H15.2286C15.0685 15.3952 14.915 15.3316 14.8018 15.2184C14.6886 15.1052 14.625 14.9517 14.625 14.7916C14.625 14.6315 14.6886 14.478 14.8018 14.3648C14.915 14.2516 15.0685 14.188 15.2286 14.188H26.5677C26.7278 14.188 26.8813 14.2516 26.9945 14.3648C27.1077 14.478 27.1713 14.6315 27.1713 14.7916C27.1713 14.8708 27.1558 14.9493 27.1254 15.0226C27.0951 15.0958 27.0507 15.1624 26.9946 15.2184C26.9386 15.2745 26.872 15.3189 26.7988 15.3493C26.7256 15.3796 26.6471 15.3952 26.5678 15.3952ZM26.5678 18.5933H15.2286C15.0685 18.5933 14.915 18.5297 14.8018 18.4165C14.6886 18.3033 14.625 18.1498 14.625 17.9897C14.625 17.8296 14.6886 17.6761 14.8018 17.5629C14.915 17.4497 15.0685 17.3861 15.2286 17.3861H26.5677C26.7278 17.3861 26.8813 17.4497 26.9946 17.5629C27.1078 17.6761 27.1714 17.8296 27.1714 17.9897C27.1714 18.1498 27.1078 18.3033 26.9946 18.4165C26.8814 18.5297 26.7279 18.5933 26.5678 18.5933Z" fill="#665E66"/>
</svg>
