<svg width="32" height="40" viewBox="0 0 32 40" fill="none" xmlns="http://www.w3.org/2000/svg">
<path d="M25.1802 12.7977C24.3466 11.8876 23.0507 10.6592 22.4994 13.4328C22.3119 14.3759 21.8738 15.1028 21.4984 15.6881C21.0938 13.6403 19.8765 11.5207 18.7294 10.0916C18.3002 9.55689 16.7773 7.43134 16.4847 3.8754C16.441 3.3447 15.8106 3.09548 15.4163 3.45345C11.6482 6.87408 9.57992 11.5786 9.50312 16.8749C9.50312 16.8749 7.93406 15.5524 7.08164 13.0919C6.85211 12.4293 5.96382 12.3029 5.57843 12.8888C5.50659 12.998 5.4384 13.1095 5.37398 13.2233C2.46671 18.3639 1.0682 24.6065 2.36109 30.4143C4.52281 40.1406 18.8223 42.8599 26.3926 36.7467C33.7992 30.7657 31.4448 19.6338 25.1802 12.7977Z" fill="#ED694A"/>
<path d="M4.3732 31.025C3.09531 25.155 4.44796 18.8517 7.28695 13.6306C7.21316 13.4531 7.14466 13.2735 7.08156 13.092C6.85203 12.4294 5.96375 12.303 5.57835 12.8889C5.50653 12.9981 5.43837 13.1097 5.37398 13.2234C2.46671 18.364 1.0682 24.6066 2.36109 30.4144C3.3471 34.8508 6.85867 37.8285 11.1048 39.1761C7.79234 37.5714 5.19828 34.8207 4.3732 31.025ZM11.5252 16.7775C11.6821 11.9707 13.4207 7.66051 16.5324 4.34942C16.514 4.19332 16.4981 4.03691 16.4849 3.88028C16.4403 3.34504 15.833 3.07661 15.4404 3.43145C11.8009 6.72192 9.58265 11.3789 9.50304 16.8748L10.1842 17.4038C10.5197 17.6643 10.9742 17.653 11.2946 17.4143C11.4858 17.2523 11.5132 17.0078 11.5252 16.7775Z" fill="#D8553A"/>
<path d="M22.8944 19.9077C22.2787 19.2355 21.3215 18.3281 20.9143 20.3768C20.7758 21.0733 20.4522 21.6103 20.1751 22.0427C19.8762 20.5301 18.977 18.9645 18.1298 17.9089C17.8128 17.514 16.688 15.9441 16.4718 13.3174C16.4395 12.9254 15.974 12.7414 15.6827 13.0058C12.8995 15.5323 11.3718 19.0073 11.3151 22.9191C11.3151 22.9191 10.1562 21.9423 9.52663 20.1249C9.35709 19.6355 8.70092 19.5422 8.41631 19.9749C8.36325 20.0556 8.31288 20.138 8.2653 20.222C6.11788 24.019 5.08491 28.6298 6.03983 32.9197C7.63655 40.1038 18.1984 42.1123 23.79 37.5969C29.2606 33.1793 27.5216 24.957 22.8944 19.9077Z" fill="#F4A32C"/>
<path d="M8.03131 33.4833C7.18585 29.2898 8.06155 24.7902 9.91819 21.0433C9.76658 20.7467 9.63572 20.4398 9.52655 20.1251C9.35702 19.6357 8.70085 19.5423 8.41624 19.975C8.36315 20.0557 8.31279 20.1381 8.26522 20.2222C6.11788 24.0191 5.08499 28.63 6.03975 32.9198C6.78241 36.261 9.46452 38.4819 12.6836 39.4484C10.3965 38.3015 8.59569 36.2863 8.03131 33.4833Z" fill="#E89528"/>
<path d="M20.8081 26.3986C20.3914 25.9436 19.7433 25.3293 19.4677 26.7162C19.374 27.1878 19.1549 27.5512 18.9672 27.8439C18.7649 26.8199 18.1563 25.7601 17.5827 25.0456C17.3681 24.7783 16.6067 23.7155 16.4603 21.9375C16.4384 21.6721 16.1233 21.5475 15.9261 21.7265C14.042 23.4368 13.0079 25.7892 12.9695 28.4372C12.9695 28.4372 12.1849 27.7759 11.7588 26.5458C11.6441 26.2145 11.1999 26.1513 11.0073 26.4442C10.9713 26.4988 10.9372 26.5546 10.905 26.6115C9.45142 29.1818 8.75213 32.303 9.39853 35.207C10.4794 40.0702 17.6292 41.4298 21.4142 38.3732C22.7104 37.3265 23.5141 35.8515 23.6771 34.22C23.9231 31.749 22.972 28.76 20.8081 26.3986Z" fill="#F4D44E"/>
<path d="M18.8716 32.4222C18.6394 32.1687 18.2784 31.8265 18.1248 32.5991C18.0726 32.8618 17.9506 33.0643 17.846 33.2274C17.7332 32.6569 17.3942 32.0664 17.0746 31.6684C16.9551 31.5194 16.5308 30.9273 16.4492 29.9367C16.437 29.7888 16.2614 29.7196 16.1517 29.8192C15.102 30.7721 14.5258 32.0826 14.5045 33.5579C14.5045 33.5579 14.0674 33.1895 13.8299 32.5041C13.766 32.3195 13.5185 32.2842 13.4113 32.4475C13.3906 32.4788 13.3716 32.5103 13.3544 32.5407C12.5445 33.9728 12.1549 35.7117 12.5151 37.3296C13.3353 41.0195 20.0578 40.9076 20.4701 36.7796C20.607 35.403 20.0771 33.7377 18.8716 32.4222Z" fill="#EAE9E8"/>
<path d="M14.076 38.0622C13.7158 36.615 14.1054 35.0594 14.9153 33.7785C14.9324 33.7512 14.9516 33.7232 14.9721 33.6951C15.0795 33.5491 15.3269 33.5806 15.3908 33.7457C15.6282 34.3588 16.0653 34.6884 16.0653 34.6884C16.0829 33.604 16.4757 32.6196 17.1972 31.8301C17.0359 31.6067 16.5423 31.0679 16.4492 29.9372C16.437 29.7893 16.2614 29.72 16.1517 29.8196C15.102 30.7725 14.5258 32.0831 14.5045 33.5584C14.5045 33.5584 14.0674 33.19 13.8299 32.5046C13.766 32.32 13.5185 32.2848 13.4113 32.4481C13.3906 32.4794 13.3716 32.5108 13.3544 32.5413C12.5445 33.9732 12.1549 35.7122 12.5151 37.3301C12.8484 38.8297 14.2176 39.731 15.7313 39.9485C14.9148 39.5475 14.2872 38.9125 14.076 38.0622Z" fill="#F7E7A1"/>
<path d="M10.4222 5.31602C12.1117 3.94187 12.1079 1.37102 10.4222 0C8.73276 1.37406 8.73643 3.945 10.4222 5.31602ZM30.6718 16.3448C32.3613 14.9706 32.3575 12.3998 30.6718 11.0287C29.8996 11.6567 28.9861 14.9738 30.6718 16.3448ZM0.749319 17.3911C1.9669 16.4007 1.96424 14.548 0.749319 13.5598C0.192834 14.0123 -0.465603 16.403 0.749319 17.3911ZM21.8371 9.14734C23.0547 8.15695 23.0521 6.30422 21.8371 5.31602C20.6196 6.30633 20.6223 8.15922 21.8371 9.14734Z" fill="#D8553A"/>
<path d="M12.8685 22.2909C13.1481 18.9899 14.4086 16.0548 16.5252 13.8173C16.5032 13.6511 16.4854 13.4845 16.4717 13.3174C16.4394 12.9254 15.9738 12.7414 15.6826 13.0058C13.4771 15.0078 12.0617 17.6059 11.5403 20.5446L11.5395 20.5444C11.4941 20.805 11.4551 21.0667 11.4225 21.3293C11.4226 21.3295 11.4227 21.3297 11.4228 21.3299C11.3586 21.8574 11.3226 22.3879 11.3149 22.9192C11.3738 22.9307 12.7073 23.6161 12.8685 22.2909Z" fill="#E89528"/>
<path d="M11.3469 35.8968C10.7723 33.184 11.2617 30.291 12.3985 27.7843C12.1274 27.404 11.912 26.9869 11.7589 26.5457C11.6441 26.2144 11.2 26.1512 11.0073 26.4441C10.9713 26.4987 10.9372 26.5545 10.905 26.6114C9.45142 29.1817 8.75213 32.3029 9.39853 35.2069C9.90478 37.4844 11.7421 38.9935 13.9413 39.6404C12.6612 38.7906 11.6928 37.5327 11.3469 35.8968ZM15.0438 27.2518C15.2343 25.8904 15.7911 24.3905 16.6676 23.1365C16.5721 22.7825 16.497 22.3824 16.4604 21.9375C16.4385 21.6721 16.1234 21.5475 15.9263 21.7265C14.7524 22.7922 13.9098 24.1077 13.4311 25.5881L13.4299 25.5878C13.3545 25.8204 13.2481 26.2057 13.1835 26.5098C13.1841 26.5097 13.1846 26.5097 13.1852 26.5094C13.0507 27.1434 12.9786 27.7891 12.9699 28.4372C14.0239 28.5687 14.8959 28.3077 15.0438 27.2518Z" fill="#E8C842"/>
</svg>
