<svg width="30" height="30" viewBox="0 0 30 30" fill="none" xmlns="http://www.w3.org/2000/svg">
<rect x="0.375" y="0.375" width="29.25" height="29.25" rx="14.625" fill="white"/>
<rect x="0.375" y="0.375" width="29.25" height="29.25" rx="14.625" stroke="#FE502D" stroke-width="0.75"/>
<g clip-path="url(#clip0_37_3385)">
<path d="M15.0004 12.0001V15.0001M15.0004 18.0001H15.0079M8.88789 12.4651C8.77842 11.972 8.79523 11.4592 8.93676 10.9743C9.07828 10.4895 9.33995 10.0482 9.69749 9.69136C10.055 9.33457 10.4969 9.07383 10.982 8.93332C11.4672 8.79281 11.98 8.77707 12.4729 8.88757C12.7442 8.4633 13.1179 8.11414 13.5596 7.87229C14.0013 7.63043 14.4968 7.50366 15.0004 7.50366C15.504 7.50366 15.9995 7.63043 16.4412 7.87229C16.8829 8.11414 17.2566 8.4633 17.5279 8.88757C18.0215 8.77659 18.5352 8.79225 19.0211 8.93311C19.5071 9.07396 19.9495 9.33543 20.3073 9.69319C20.665 10.0509 20.9265 10.4934 21.0674 10.9793C21.2082 11.4653 21.2239 11.9789 21.1129 12.4726C21.5372 12.7439 21.8863 13.1176 22.1282 13.5593C22.37 14.001 22.4968 14.4965 22.4968 15.0001C22.4968 15.5037 22.37 15.9991 22.1282 16.4409C21.8863 16.8826 21.5372 17.2563 21.1129 17.5276C21.2234 18.0204 21.2077 18.5332 21.0671 19.0184C20.9266 19.5036 20.6659 19.9454 20.3091 20.303C19.9523 20.6605 19.511 20.9222 19.0261 21.0637C18.5413 21.2052 18.0285 21.222 17.5354 21.1126C17.2645 21.5385 16.8904 21.8891 16.448 22.1321C16.0055 22.375 15.5089 22.5024 15.0041 22.5024C14.4994 22.5024 14.0028 22.375 13.5603 22.1321C13.1178 21.8891 12.7438 21.5385 12.4729 21.1126C11.98 21.2231 11.4672 21.2073 10.982 21.0668C10.4969 20.9263 10.055 20.6656 9.69749 20.3088C9.33995 19.952 9.07828 19.5107 8.93676 19.0258C8.79523 18.5409 8.77842 18.0282 8.88789 17.5351C8.46036 17.2645 8.1082 16.8902 7.86418 16.447C7.62015 16.0038 7.49219 15.506 7.49219 15.0001C7.49219 14.4941 7.62015 13.9964 7.86418 13.5532C8.1082 13.1099 8.46036 12.7356 8.88789 12.4651Z" stroke="#FE502D" stroke-width="1.5" stroke-linecap="round" stroke-linejoin="round"/>
</g>
<defs>
<clipPath id="clip0_37_3385">
<rect width="18" height="18" fill="white" transform="translate(6 6)"/>
</clipPath>
</defs>
</svg>
