<svg width="40" height="40" viewBox="0 0 40 40" fill="none" xmlns="http://www.w3.org/2000/svg">
<circle cx="20.1193" cy="19.5966" r="14.371" fill="white"/>
<path d="M24.2489 11.3691H15.76C13.3422 11.3691 11.3689 13.3336 11.3689 15.7603V24.2491C11.3689 26.6669 13.3333 28.6403 15.76 28.6403H24.2489C26.6667 28.6403 28.64 26.6758 28.64 24.2491V15.7603C28.6311 13.3336 26.6667 11.3691 24.2489 11.3691ZM20 25.6803C16.8711 25.6803 14.32 23.1291 14.32 20.0003C14.32 16.8714 16.8711 14.3203 20 14.3203C23.1289 14.3203 25.68 16.8714 25.68 20.0003C25.68 23.1291 23.1289 25.6803 20 25.6803ZM25.9645 14.9514C25.4311 14.9514 25.0045 14.5247 25.0045 13.9914C25.0045 13.458 25.4311 13.0314 25.9645 13.0314C26.4978 13.0314 26.9245 13.458 26.9245 13.9914C26.9245 14.5247 26.4978 14.9514 25.9645 14.9514Z" fill="#232530"/>
<path d="M23.4528 20.0421C23.4757 18.1373 21.9501 16.5747 20.0453 16.5518C18.1406 16.529 16.5779 18.0545 16.5551 19.9593C16.5322 21.8641 18.0578 23.4267 19.9626 23.4496C21.8673 23.4724 23.43 21.9469 23.4528 20.0421Z" fill="#232530"/>
<path d="M20 0C8.95111 0 0 8.95111 0 20C0 31.0489 8.95111 40 20 40C31.0489 40 40 31.0489 40 20C40 8.95111 31.0489 0 20 0ZM31.1111 24.2489C31.1111 28.0356 28.0356 31.1111 24.2489 31.1111H15.76C11.9733 31.1111 8.89778 28.0356 8.89778 24.2489V15.76C8.89778 11.9733 11.9733 8.89778 15.76 8.89778H24.2489C28.0356 8.89778 31.1111 11.9733 31.1111 15.76V24.2489Z" fill="#232530"/>
</svg>
