<svg width="40" height="40" viewBox="0 0 40 40" fill="none" xmlns="http://www.w3.org/2000/svg">
<path d="M15.21 23L10.66 15.14C10.4638 14.8009 10.3715 14.4116 10.3946 14.0205C10.4177 13.6294 10.5552 13.2537 10.79 12.94L12.4 10.8C12.5863 10.5516 12.8278 10.35 13.1055 10.2111C13.3832 10.0723 13.6895 10 14 10H26C26.3104 10 26.6167 10.0723 26.8944 10.2111C27.1721 10.35 27.4137 10.5516 27.6 10.8L29.2 12.94C29.4363 13.2527 29.5755 13.6278 29.6004 14.019C29.6253 14.4101 29.5347 14.7999 29.34 15.14L24.79 23M19 20L13.12 10.2M21 20L26.88 10.2M16 15H24M20 26V24H19.5M25 25C25 27.7614 22.7614 30 20 30C17.2385 30 15 27.7614 15 25C15 22.2386 17.2385 20 20 20C22.7614 20 25 22.2386 25 25Z" stroke="black" stroke-width="2" stroke-linecap="round" stroke-linejoin="round"/>
</svg>
