<svg width="40" height="40" viewBox="0 0 40 40" fill="none" xmlns="http://www.w3.org/2000/svg">
<path d="M20 40C31.0457 40 40 31.0457 40 20C40 8.95431 31.0457 0 20 0C8.95431 0 0 8.95431 0 20C0 31.0457 8.95431 40 20 40Z" fill="#232530"/>
<path d="M29.7421 14.5153C29.7243 14.5153 27.7599 14.4798 26.0888 13.2531C24.631 12.1865 24.1243 9.86645 24.0443 9.00423V8.88867H20.4888V24.2131C20.4888 26.0531 18.9866 27.5553 17.1466 27.5553C15.3066 27.5553 13.8043 26.0531 13.8043 24.2131C13.8043 22.3731 15.3066 20.8709 17.1466 20.8709H18.2666V17.3153H17.1466C13.3421 17.3153 10.2488 20.4087 10.2488 24.2131C10.2488 28.0176 13.3421 31.1109 17.1466 31.1109C20.951 31.1109 24.0443 28.0176 24.0443 24.2131V16.1509C26.6221 18.0087 29.4132 18.062 29.7332 18.062V14.5064H29.7421V14.5153Z" fill="white"/>
</svg>
