<svg width="40" height="40" viewBox="0 0 40 40" fill="none" xmlns="http://www.w3.org/2000/svg">
<g clip-path="url(#clip0_189_1229)">
<path d="M35.6606 16.9321H36.8679V22.4589H35.6606V16.9321Z" fill="#1B81A5"/>
<path d="M30.4573 16.7744H9.5425L7.7175 27.1534C7.6507 27.5334 7.9107 27.8925 8.29219 27.949C9.88149 28.184 14.0667 29.0186 19.6963 31.7854C19.7908 31.8317 19.8946 31.8559 19.9999 31.8559C20.1052 31.8559 20.2091 31.8317 20.3036 31.7854C25.9331 29.0186 30.1184 28.184 31.7077 27.949C32.0891 27.8925 32.3491 27.5334 32.2823 27.1534L30.4573 16.7744Z" fill="#33393A"/>
<path d="M32.2825 27.1534L30.4575 16.7744H25.7139L27.833 28.8258C29.6238 28.3057 30.9564 28.0601 31.7078 27.949C32.0893 27.8925 32.3493 27.5334 32.2825 27.1534Z" fill="#2A2F33"/>
<path d="M19.8993 8.14417L0.172734 15.9658C-0.0575781 16.0571 -0.0575781 16.383 0.172734 16.4743L19.8993 24.2959C19.964 24.3216 20.0361 24.3216 20.1009 24.2959L39.8274 16.4743C40.0577 16.383 40.0577 16.0574 39.8274 15.9661L20.1009 8.14425C20.0361 8.11858 19.964 8.11851 19.8993 8.14417Z" fill="#464C50"/>
<path d="M39.8277 15.9657L34.1108 13.6992L16.8107 20.5589C16.513 20.6767 16.1817 20.6767 15.8839 20.5589L2.23645 15.1476L0.172852 15.9657C-0.0576172 16.057 -0.0576172 16.3829 0.172852 16.4741L13.6424 21.815L19.8994 24.2958C19.9641 24.3214 20.0361 24.3214 20.1008 24.2958L39.8274 16.4741C40.0578 16.3829 40.0578 16.057 39.8277 15.9657Z" fill="#2A2F33"/>
<path d="M35.0482 22.2258V23.9385L34.4256 29.9107C34.4209 29.9557 34.4256 30.0011 34.4396 30.0441C34.4536 30.0871 34.4764 30.1267 34.5067 30.1603C34.5369 30.1939 34.5739 30.2207 34.6152 30.2391C34.6565 30.2574 34.7012 30.2669 34.7464 30.2669H37.7823C37.8275 30.2669 37.8722 30.2574 37.9135 30.2391C37.9548 30.2207 37.9917 30.1938 38.022 30.1602C38.0522 30.1267 38.0751 30.0871 38.089 30.0441C38.103 30.0011 38.1078 29.9557 38.103 29.9107L37.4804 23.9385V22.2258C37.4805 22.1596 37.4674 22.0941 37.4421 22.0329C37.4168 21.9717 37.3796 21.9161 37.3328 21.8693C37.286 21.8225 37.2304 21.7854 37.1692 21.76C37.1081 21.7347 37.0425 21.7217 36.9763 21.7217H35.5523C35.4186 21.7217 35.2904 21.7748 35.1959 21.8694C35.1013 21.9639 35.0482 22.0921 35.0482 22.2258Z" fill="#FCB038"/>
<path d="M35.0483 22.2258V23.9385H37.4806V22.2258C37.4806 22.1596 37.4676 22.0941 37.4423 22.0329C37.4169 21.9717 37.3798 21.9161 37.333 21.8693C37.2862 21.8225 37.2306 21.7854 37.1694 21.76C37.1082 21.7347 37.0427 21.7217 36.9765 21.7217H35.5525C35.4188 21.7217 35.2906 21.7748 35.196 21.8694C35.1015 21.9639 35.0484 22.0921 35.0483 22.2258Z" fill="#F3E8D7"/>
</g>
<defs>
<clipPath id="clip0_189_1229">
<rect width="40" height="40" fill="white"/>
</clipPath>
</defs>
</svg>
