<svg width="28" height="28" viewBox="0 0 28 28" fill="none" xmlns="http://www.w3.org/2000/svg">
<path d="M16.4926 3.09717H12.1315C7.92299 3.09717 4.49951 6.52065 4.49951 10.7291V14C4.49951 16.9574 6.20307 19.6367 8.86063 20.8987V24.543C8.86063 24.8592 9.25586 25.0227 9.47937 24.7992L12.6466 21.6347H16.4926C20.7011 21.6347 24.1246 18.2112 24.1246 14V10.7291C24.1246 6.52065 20.7011 3.09717 16.4926 3.09717ZM19.3491 17.4019L18.2452 18.4813C17.0841 19.6179 14.0531 18.3205 11.3819 15.592C8.71072 12.8609 7.53867 9.80266 8.64258 8.66605L9.74648 7.58667C10.1526 7.18872 10.8422 7.19689 11.2974 7.60302L12.8892 9.23027C13.4562 9.81084 13.2163 10.7839 12.4667 11.0074C11.9489 11.1737 11.5972 11.7434 11.7635 12.2612C12.0388 13.4715 13.5734 14.9842 14.7182 15.284C15.2333 15.404 15.8112 15.1232 15.9911 14.6081C16.2282 13.864 17.2067 13.6432 17.7764 14.2265L19.3655 15.851C19.7634 16.2568 19.758 16.9467 19.3491 17.4019ZM15.3042 8.276C15.1952 8.276 15.0861 8.28145 14.9798 8.29508C14.7809 8.31688 14.601 8.17242 14.5792 7.97344C14.5573 7.77447 14.7018 7.59457 14.9008 7.57277C15.0343 7.55641 15.1706 7.55096 15.3042 7.55096C17.3076 7.55096 18.9375 9.18093 18.9375 11.1843C18.9375 11.3179 18.9321 11.4542 18.9157 11.5877C18.8939 11.784 18.7113 11.9312 18.5151 11.9094C18.3188 11.8876 18.1716 11.7049 18.1934 11.5087C18.2043 11.4024 18.2125 11.2933 18.2125 11.1843C18.2125 9.58161 16.9069 8.276 15.3042 8.276ZM17.4847 11.1843C17.4847 11.3833 17.3185 11.5468 17.1195 11.5468C16.9233 11.5468 16.757 11.3833 16.757 11.1843C16.757 10.383 16.1055 9.73152 15.3042 9.73152C15.1025 9.73152 14.9389 9.56798 14.9389 9.36628C14.9389 9.1673 15.1025 9.00376 15.3042 9.00376C16.5062 9.00376 17.4847 9.98229 17.4847 11.1843ZM20.2568 12.3591C20.2104 12.5553 20.0006 12.678 19.807 12.6262C19.619 12.5744 19.5045 12.3782 19.5481 12.1901C19.6271 11.863 19.6653 11.525 19.6653 11.1843C19.6653 8.78025 17.7083 6.8232 15.3042 6.8232C15.1924 6.8232 15.078 6.82593 14.9662 6.83683C14.7672 6.85046 14.5928 6.70054 14.5764 6.50157C14.5628 6.29987 14.7127 6.12542 14.9117 6.11179C15.0425 6.10089 15.1734 6.09544 15.3042 6.09544C18.1089 6.09544 20.3931 8.37957 20.3931 11.1843C20.3931 11.5795 20.3467 11.9748 20.2568 12.3591Z" fill="#ACADC9"/>
</svg>
