<svg width="50" height="50" viewBox="0 0 50 50" fill="none" xmlns="http://www.w3.org/2000/svg">
<path d="M20.25 30.735V34.3935C20.2415 35.1644 20.0351 35.9202 19.6506 36.5884C19.266 37.2566 18.7163 37.8148 18.054 38.2095C16.6481 39.2508 15.5044 40.6057 14.7138 42.1665C13.9233 43.7273 13.5077 45.4509 13.5 47.2005M29.25 30.735V34.3935C29.2585 35.1644 29.4649 35.9202 29.8494 36.5884C30.234 37.2566 30.7837 37.8148 31.446 38.2095C32.8519 39.2508 33.9956 40.6057 34.7862 42.1665C35.5767 43.7273 35.9923 45.4509 36 47.2005M38.25 18H41.625C43.1168 18 44.5476 17.4074 45.6025 16.3525C46.6574 15.2976 47.25 13.8668 47.25 12.375C47.25 10.8832 46.6574 9.45242 45.6025 8.39752C44.5476 7.34263 43.1168 6.75 41.625 6.75H38.25M38.25 18C38.25 21.5804 36.8277 25.0142 34.2959 27.5459C31.7642 30.0777 28.3304 31.5 24.75 31.5C21.1696 31.5 17.7358 30.0777 15.2041 27.5459C12.6723 25.0142 11.25 21.5804 11.25 18M38.25 18V4.5C38.25 3.90326 38.0129 3.33097 37.591 2.90901C37.169 2.48705 36.5967 2.25 36 2.25H13.5C12.9033 2.25 12.331 2.48705 11.909 2.90901C11.4871 3.33097 11.25 3.90326 11.25 4.5V18M6.75 47.25H42.75M11.25 18H7.875C6.38316 18 4.95242 17.4074 3.89752 16.3525C2.84263 15.2976 2.25 13.8668 2.25 12.375C2.25 10.8832 2.84263 9.45242 3.89752 8.39752C4.95242 7.34263 6.38316 6.75 7.875 6.75H11.25" stroke="#FE502D" stroke-width="4.5" stroke-linecap="round" stroke-linejoin="round"/>
</svg>
